<?xml version="1.0" encoding="utf-8"?>
<!-- Generator: Adobe Illustrator 21.0.0, SVG Export Plug-In . SVG Version: 6.00 Build 0)  -->
<svg version="1.1" id="Layer_1" xmlns="http://www.w3.org/2000/svg" xmlns:xlink="http://www.w3.org/1999/xlink" x="0px" y="0px"
	 viewBox="0 0 33 34" style="enable-background:new 0 0 33 34;" xml:space="preserve">
<style type="text/css">
	.st0{
		clip-path:url(#SVGID_2_);
		fill: #0e76f7;
	}
</style>

<g>
	<defs>
		<rect id="SVGID_1_" x="0.1" y="0.3" width="32.9" height="33"/>
	</defs>
	<clipPath id="SVGID_2_">
		<use xlink:href="#SVGID_1_"  style="overflow:visible;"/>
	</clipPath>
	<path class="st0" d="M14.8,0.3C11.2,0.7,7.6,2.2,4.8,5C2,7.9,0.4,11.4,0.1,15.1c4,0.5,8.3,2.5,11.8,6s5.6,7.8,6,11.8
		c3.7-0.3,7.2-1.9,10.1-4.7c2.8-2.8,4.4-6.4,4.7-10.1c-4-0.5-8.3-2.5-11.8-6C17.4,8.6,15.3,4.3,14.8,0.3z"/>
	<path class="st0" d="M32.7,16.1c-0.1-4-1.7-8-4.8-11.1C24.9,2,20.9,0.4,16.9,0.3c0.5,3.5,2.3,7.3,5.5,10.4
		C25.5,13.8,29.2,15.7,32.7,16.1z"/>
	<path class="st0" d="M0,17.1c0.1,4,1.7,8,4.8,11.1c3.1,3.1,7.1,4.7,11.1,4.8c-0.5-3.5-2.3-7.3-5.4-10.4C7.3,19.4,3.5,17.6,0,17.1z"
		/>
</g>
</svg>
