<?xml version="1.0" encoding="utf-8"?>
<!-- Generated by IcoMoon.io -->
<!DOCTYPE svg PUBLIC "-//W3C//DTD SVG 1.1//EN" "http://www.w3.org/Graphics/SVG/1.1/DTD/svg11.dtd">
<svg version="1.1" xmlns="http://www.w3.org/2000/svg" xmlns:xlink="http://www.w3.org/1999/xlink" width="467" height="512" viewBox="0 0 467 512">
<g id="icomoon-ignore">
    <line stroke-width="1" x1="16" y1="0" x2="16" y2="512" stroke="#449FDB" opacity="0.3"></line>
    <line stroke-width="1" x1="32" y1="0" x2="32" y2="512" stroke="#449FDB" opacity="1"></line>
    <line stroke-width="1" x1="48" y1="0" x2="48" y2="512" stroke="#449FDB" opacity="0.3"></line>
    <line stroke-width="1" x1="64" y1="0" x2="64" y2="512" stroke="#449FDB" opacity="1"></line>
    <line stroke-width="1" x1="80" y1="0" x2="80" y2="512" stroke="#449FDB" opacity="0.3"></line>
    <line stroke-width="1" x1="96" y1="0" x2="96" y2="512" stroke="#449FDB" opacity="1"></line>
    <line stroke-width="1" x1="112" y1="0" x2="112" y2="512" stroke="#449FDB" opacity="0.3"></line>
    <line stroke-width="1" x1="128" y1="0" x2="128" y2="512" stroke="#449FDB" opacity="1"></line>
    <line stroke-width="1" x1="144" y1="0" x2="144" y2="512" stroke="#449FDB" opacity="0.3"></line>
    <line stroke-width="1" x1="160" y1="0" x2="160" y2="512" stroke="#449FDB" opacity="1"></line>
    <line stroke-width="1" x1="176" y1="0" x2="176" y2="512" stroke="#449FDB" opacity="0.3"></line>
    <line stroke-width="1" x1="192" y1="0" x2="192" y2="512" stroke="#449FDB" opacity="1"></line>
    <line stroke-width="1" x1="208" y1="0" x2="208" y2="512" stroke="#449FDB" opacity="0.3"></line>
    <line stroke-width="1" x1="224" y1="0" x2="224" y2="512" stroke="#449FDB" opacity="1"></line>
    <line stroke-width="1" x1="240" y1="0" x2="240" y2="512" stroke="#449FDB" opacity="0.3"></line>
    <line stroke-width="1" x1="256" y1="0" x2="256" y2="512" stroke="#449FDB" opacity="1"></line>
    <line stroke-width="1" x1="272" y1="0" x2="272" y2="512" stroke="#449FDB" opacity="0.3"></line>
    <line stroke-width="1" x1="288" y1="0" x2="288" y2="512" stroke="#449FDB" opacity="1"></line>
    <line stroke-width="1" x1="304" y1="0" x2="304" y2="512" stroke="#449FDB" opacity="0.3"></line>
    <line stroke-width="1" x1="320" y1="0" x2="320" y2="512" stroke="#449FDB" opacity="1"></line>
    <line stroke-width="1" x1="336" y1="0" x2="336" y2="512" stroke="#449FDB" opacity="0.3"></line>
    <line stroke-width="1" x1="352" y1="0" x2="352" y2="512" stroke="#449FDB" opacity="1"></line>
    <line stroke-width="1" x1="368" y1="0" x2="368" y2="512" stroke="#449FDB" opacity="0.3"></line>
    <line stroke-width="1" x1="384" y1="0" x2="384" y2="512" stroke="#449FDB" opacity="1"></line>
    <line stroke-width="1" x1="400" y1="0" x2="400" y2="512" stroke="#449FDB" opacity="0.3"></line>
    <line stroke-width="1" x1="416" y1="0" x2="416" y2="512" stroke="#449FDB" opacity="1"></line>
    <line stroke-width="1" x1="432" y1="0" x2="432" y2="512" stroke="#449FDB" opacity="0.3"></line>
    <line stroke-width="1" x1="448" y1="0" x2="448" y2="512" stroke="#449FDB" opacity="1"></line>
    <line stroke-width="1" x1="464" y1="0" x2="464" y2="512" stroke="#449FDB" opacity="0.3"></line>
    <line stroke-width="1" x1="0" y1="16" x2="467" y2="16" stroke="#449FDB" opacity="0.3"></line>
    <line stroke-width="1" x1="0" y1="32" x2="467" y2="32" stroke="#449FDB" opacity="1"></line>
    <line stroke-width="1" x1="0" y1="48" x2="467" y2="48" stroke="#449FDB" opacity="0.3"></line>
    <line stroke-width="1" x1="0" y1="64" x2="467" y2="64" stroke="#449FDB" opacity="1"></line>
    <line stroke-width="1" x1="0" y1="80" x2="467" y2="80" stroke="#449FDB" opacity="0.3"></line>
    <line stroke-width="1" x1="0" y1="96" x2="467" y2="96" stroke="#449FDB" opacity="1"></line>
    <line stroke-width="1" x1="0" y1="112" x2="467" y2="112" stroke="#449FDB" opacity="0.3"></line>
    <line stroke-width="1" x1="0" y1="128" x2="467" y2="128" stroke="#449FDB" opacity="1"></line>
    <line stroke-width="1" x1="0" y1="144" x2="467" y2="144" stroke="#449FDB" opacity="0.3"></line>
    <line stroke-width="1" x1="0" y1="160" x2="467" y2="160" stroke="#449FDB" opacity="1"></line>
    <line stroke-width="1" x1="0" y1="176" x2="467" y2="176" stroke="#449FDB" opacity="0.3"></line>
    <line stroke-width="1" x1="0" y1="192" x2="467" y2="192" stroke="#449FDB" opacity="1"></line>
    <line stroke-width="1" x1="0" y1="208" x2="467" y2="208" stroke="#449FDB" opacity="0.3"></line>
    <line stroke-width="1" x1="0" y1="224" x2="467" y2="224" stroke="#449FDB" opacity="1"></line>
    <line stroke-width="1" x1="0" y1="240" x2="467" y2="240" stroke="#449FDB" opacity="0.3"></line>
    <line stroke-width="1" x1="0" y1="256" x2="467" y2="256" stroke="#449FDB" opacity="1"></line>
    <line stroke-width="1" x1="0" y1="272" x2="467" y2="272" stroke="#449FDB" opacity="0.3"></line>
    <line stroke-width="1" x1="0" y1="288" x2="467" y2="288" stroke="#449FDB" opacity="1"></line>
    <line stroke-width="1" x1="0" y1="304" x2="467" y2="304" stroke="#449FDB" opacity="0.3"></line>
    <line stroke-width="1" x1="0" y1="320" x2="467" y2="320" stroke="#449FDB" opacity="1"></line>
    <line stroke-width="1" x1="0" y1="336" x2="467" y2="336" stroke="#449FDB" opacity="0.3"></line>
    <line stroke-width="1" x1="0" y1="352" x2="467" y2="352" stroke="#449FDB" opacity="1"></line>
    <line stroke-width="1" x1="0" y1="368" x2="467" y2="368" stroke="#449FDB" opacity="0.3"></line>
    <line stroke-width="1" x1="0" y1="384" x2="467" y2="384" stroke="#449FDB" opacity="1"></line>
    <line stroke-width="1" x1="0" y1="400" x2="467" y2="400" stroke="#449FDB" opacity="0.3"></line>
    <line stroke-width="1" x1="0" y1="416" x2="467" y2="416" stroke="#449FDB" opacity="1"></line>
    <line stroke-width="1" x1="0" y1="432" x2="467" y2="432" stroke="#449FDB" opacity="0.3"></line>
    <line stroke-width="1" x1="0" y1="448" x2="467" y2="448" stroke="#449FDB" opacity="1"></line>
    <line stroke-width="1" x1="0" y1="464" x2="467" y2="464" stroke="#449FDB" opacity="0.3"></line>
    <line stroke-width="1" x1="0" y1="480" x2="467" y2="480" stroke="#449FDB" opacity="1"></line>
    <line stroke-width="1" x1="0" y1="496" x2="467" y2="496" stroke="#449FDB" opacity="0.3"></line>
</g>
<path d="M180.706 490.767l-128-73.487c-32.651-18.851-52.748-53.705-52.706-91.407v-146.823c-0.042-37.702 20.055-72.556 52.706-91.407l128-73.487c32.614-18.83 72.797-18.83 105.412 0l127.247 73.487c32.651 18.851 52.748 53.705 52.706 91.407v146.823c0.042 37.702-20.055 72.556-52.706 91.407l-127.247 73.487c-32.614 18.83-72.798 18.83-105.412 0z"></path>
<path d="M116.706 160.195c0-6.569 5.474-12.016 12.016-12.016h8.345c6.569 0 12.016 5.474 12.016 12.016v8.345c0 6.569-5.474 12.016-12.016 12.016h-8.345c-6.569 0-12.016-5.474-12.016-12.016v-8.345zM94.118 160.195v8.345c0 18.994 15.536 34.604 34.604 34.604h8.345c18.994 0 34.604-15.536 34.604-34.604v-8.345c0-18.994-15.536-34.604-34.604-34.604h-8.345c-18.993 0-34.604 15.536-34.604 34.604z"></path>
<path d="M216.546 160.195c0-6.569 5.474-12.016 12.016-12.016h8.345c6.569 0 12.016 5.474 12.016 12.016v8.345c0 6.569-5.474 12.016-12.016 12.016h-8.345c-6.569 0-12.016-5.474-12.016-12.016v-8.345zM193.958 160.195v8.345c0 18.994 15.536 34.604 34.604 34.604h8.345c18.994 0 34.604-15.536 34.604-34.604v-8.345c0-18.994-15.536-34.604-34.604-34.604h-8.345c-18.994 0-34.604 15.536-34.604 34.604z"></path>
<path d="M116.706 257.474c0-6.569 5.474-12.016 12.016-12.016h8.345c6.569 0 12.016 5.474 12.016 12.016v8.344c0 6.568-5.474 12.016-12.016 12.016h-8.345c-6.569 0-12.016-5.474-12.016-12.016v-8.344zM94.118 257.474v8.344c0 18.993 15.536 34.604 34.604 34.604h8.345c18.994 0 34.604-15.536 34.604-34.604v-8.344c0-18.994-15.536-34.604-34.604-34.604h-8.345c-18.993 0-34.604 15.536-34.604 34.604z"></path>
<path d="M216.546 257.474c0-6.569 5.474-12.016 12.016-12.016h8.345c6.569 0 12.016 5.474 12.016 12.016v8.344c0 6.568-5.474 12.016-12.016 12.016h-8.345c-6.569 0-12.016-5.474-12.016-12.016v-8.344zM193.958 257.474v8.344c0 18.993 15.536 34.604 34.604 34.604h8.345c18.994 0 34.604-15.536 34.604-34.604v-8.344c0-18.994-15.536-34.604-34.604-34.604h-8.345c-18.994 0-34.604 15.536-34.604 34.604z"></path>
<path d="M327.046 180.706c-6.569 0-12.016-5.474-12.016-12.016v-8.345c0-6.569 5.474-12.016 12.016-12.016h8.344c6.568 0 12.016 5.474 12.016 12.016v8.345c0 6.569-5.474 12.016-12.016 12.016h-8.344zM327.046 203.294h8.344c18.993 0 34.604-15.536 34.604-34.604v-8.345c0-18.994-15.536-34.604-34.604-34.604h-8.344c-18.993 0-34.604 15.536-34.604 34.604v8.345c0 18.994 15.536 34.604 34.604 34.604z"></path>
<path d="M327.046 277.836c-6.569 0-12.016-5.474-12.016-12.016v-8.344c0-6.569 5.474-12.016 12.016-12.016h8.344c6.568 0 12.016 5.474 12.016 12.016v8.344c0 6.569-5.474 12.016-12.016 12.016h-8.344zM327.046 300.423h8.344c18.993 0 34.604-15.536 34.604-34.604v-8.344c0-18.994-15.536-34.604-34.604-34.604h-8.344c-18.993 0-34.604 15.536-34.604 34.604v8.344c0 18.993 15.536 34.604 34.604 34.604z"></path>
<path d="M116.706 348.882c0-6.569 5.474-12.016 12.016-12.016h8.345c6.569 0 12.016 5.474 12.016 12.016v8.344c0 6.568-5.474 12.016-12.016 12.016h-8.345c-6.569 0-12.016-5.474-12.016-12.016v-8.344zM94.118 348.882v8.344c0 18.993 15.536 34.604 34.604 34.604h8.345c18.994 0 34.604-15.536 34.604-34.604v-8.344c0-18.993-15.536-34.604-34.604-34.604h-8.345c-18.993 0-34.604 15.536-34.604 34.604z"></path>
<path d="M216.546 348.882c0-6.569 5.474-12.016 12.016-12.016h8.345c6.569 0 12.016 5.474 12.016 12.016v8.344c0 6.568-5.474 12.016-12.016 12.016h-8.345c-6.569 0-12.016-5.474-12.016-12.016v-8.344zM193.958 348.882v8.344c0 18.993 15.536 34.604 34.604 34.604h8.345c18.994 0 34.604-15.536 34.604-34.604v-8.344c0-18.993-15.536-34.604-34.604-34.604h-8.345c-18.994 0-34.604 15.536-34.604 34.604z"></path>
<path d="M327.046 369.393c-6.569 0-12.016-5.474-12.016-12.016v-8.344c0-6.569 5.474-12.016 12.016-12.016h8.344c6.568 0 12.016 5.474 12.016 12.016v8.344c0 6.568-5.474 12.016-12.016 12.016h-8.344zM327.046 391.981h8.344c18.993 0 34.604-15.536 34.604-34.604v-8.344c0-18.993-15.536-34.604-34.604-34.604h-8.344c-18.993 0-34.604 15.536-34.604 34.604v8.344c0 18.993 15.536 34.604 34.604 34.604z"></path>
</svg>
